<svg enable-background="new -5113.193 -1486.664 10486.386 3049.328" height="3049.328" viewBox="-5113.193 -1486.664 10486.386 3049.328" width="10486.386" xmlns="http://www.w3.org/2000/svg"><g fill="none"><path d="m4001.023-498.334c65.855-33.164 131.75-65.186 197.486-98.407 96.812-49.096 194.098-97.364 289.494-149.513 47.5-25.896 94.605-52.482 139.073-83.244 31.589-21.859 61.403-45.669 86.532-75.189 67.904-80.015 77.043-186.084 20.01-275.551-23.711-37.023-56.323-68.967-91.771-95.178-166.764-117.57-382.88-112.292-566.777-36.945-46.791 19.2-90.669 43.482-129.268 76.312-57.111 48.644-94.134 109.181-108.195 183.109-27.216 143.782 40.608 287.17 91.929 417.797 15.952 40.646 30.644 77.315 46.831 117.963l-101.303 57.644v24.163z"/><path d="m703.475 5.975 98.94-296.188-197.249 198.017z"/><path d="m3711.334 395c-150.893 72.787-301.98 145.18-452.754 218.281-103.783 50.338-206.938 102.211-306.822 160.07-53.173 30.641-105.084 63.096-153.255 101.34-57.072 45.258-116.546 100.162-133.481 173.973-18.04 78.381.078 147.385 54.628 206.545 75.033 81.412 191.696 121.311 298.042 140.219 169.048 30.012 351.566 14.414 503.285-70.346 19.299-10.793 36.708-22.768 55.457-34.346 44.429-27.689 87.123-64.201 123.004-102.051 90.079-95.986 142.502-221.473 145.614-352.986.512-21.467-.631-43.049-2.837-64.555-6.773-64.516-24.577-126.432-45.411-187.521-22.098-65.105-47.187-130.252-73.38-193.742-7.364 2.992-7.088 2.834-12.09 5.119z"/></g><path d="m5359.989-907.072c-15.559-65.125-43.681-124.461-82.478-178.836-26.703-37.614-57.622-71.507-90.904-103.352-72.905-69.872-154.594-126.806-245.656-170.288-53.369-25.621-109.101-46.3-165.896-62.96-40.057-11.698-80.664-21.742-121.469-30.169-147.111-30.29-298.594-40.097-448.42-30.368-37.104 2.382-74.088 6.164-110.953 11.422-126.983 18.177-251.209 53.882-369.804 102.839-240.221 99.451-464.647 294.711-452.831 578.278 2.048 48.071 10.083 95.06 22.688 141.399 11.698 43.404 26.783 85.666 42.854 127.494h512.896c13.864 0 25.05 11.265 25.05 25.05v37.063l101.303-57.643c-16.188-40.648-30.879-77.316-46.831-117.965-51.32-130.665-119.145-274.014-91.929-417.796 14.062-73.929 51.084-134.466 108.195-183.109 38.599-32.828 82.477-57.15 129.268-76.312 183.897-75.348 400.014-80.625 566.777 36.945 35.448 26.211 68.061 58.116 91.771 95.178 57.033 89.428 47.895 195.536-20.01 275.551-24.969 29.481-54.865 53.33-86.532 75.189-44.546 30.762-91.573 57.348-139.073 83.244-95.238 52.109-192.603 100.378-289.494 149.513-65.736 33.224-131.631 65.245-197.486 98.408l-125.959 63.038v304.835c0 13.864-11.186 25.05-25.05 25.05h-293.63v417.62c0 13.824-11.265 25.051-25.089 25.051h-1117.526c-62.191 43.838-121.074 92.164-174.129 148.291-99.648 105.281-165.74 243.805-167.237 390.088-.472 47.697 5.002 94.725 16.779 140.848 22.372 87.832 64.004 165.701 123.438 234.115 54.59 63.057 119.815 112.646 192.76 152.428 51.911 28.24 106.305 50.572 162.195 69.32 84.996 28.594 172.278 48.367 260.662 62.822 64.791 10.477 130.095 17.605 195.516 22.293 49.628 3.506 99.491 5.041 149.238 5.158 70.935.08 141.792-2.678 212.373-9.295.354-.078.591-.158.828-.158.314 0 .709-.078.905-.156 51.558-4.883 102.839-11.5 153.805-20.01 80.35-13.312 159.755-31.115 238.214-52.619 71.172-19.535 141.24-42.066 209.064-71.527 85.549-37.34 165.977-83.184 238.605-142.344 43.562-35.488 82.988-75.072 117.137-120.051 68.021-89.566 102.799-191.5 111.582-302.807 2.561-31.588 3.271-63.059 1.733-94.805-1.968-43.129-6.302-85.941-13.667-128.52-9.217-52.857-22.293-104.807-38.009-156.129-21.819-70.975-48.169-140.297-77.159-208.514-16.227-37.891-29.933-68.77-47.814-105.951l-534.322 228.76 520.064-258.576c4.688-2.561 9.256-5.395 13.942-7.602 95.71-48.131 191.577-96.144 287.288-144.451 90.747-45.905 181.574-91.673 271.533-139.43 237.267-125.684 513.367-297.214 533.141-595.785 3.075-47.221-1.338-93.857-12.247-139.762zm-1563.185 1490.578c20.834 61.207 38.638 123.123 45.411 187.639 2.206 21.348 3.349 42.932 2.837 64.516-3.112 131.475-55.535 257.039-145.614 352.906-35.881 37.93-78.616 74.48-123.004 102.092-18.749 11.461-36.158 23.631-55.457 34.346-151.719 84.838-334.159 100.436-503.285 70.344-106.346-18.904-222.931-58.805-298.042-140.139-54.628-59.236-72.825-128.242-54.628-206.545 16.936-73.811 76.409-128.795 133.481-174.049 48.091-38.168 100.082-70.701 153.255-101.344 99.964-57.859 203.039-109.652 306.822-160.068 150.773-73.143 301.743-145.496 452.754-218.203 5.002-2.363 4.726-2.207 12.09-5.199 26.193 63.53 51.282 128.636 73.38 193.704z" fill="#004087"/><path d="m4474.139 114.328h-82.082v15.361h33.125v71.686h15.714v-71.686h33.243z" fill="#004087"/><path d="m4581.586 114.328h-12.368-2.954l-26.035 63.256-26.034-63.256h-2.994-12.17-3.624v87.047h15.794v-56.088l22.018 56.088h14.021l21.978-55.93v55.93h15.755v-87.047z" fill="#004087"/><path d="m2745.606 18.834 247.507 246.662v-389.95h-154.278c-16.307 50.159-47.696 98.172-93.229 143.288z" fill="none"/><path d="m710.644 35.693 129.347-387.389-257.946 259.067z" fill="none"/><path d="m-836.157-205.571c-77.75 0-141.675 45.983-141.675 101.678 0 55.141 63.925 100.356 141.675 100.356 77.651 0 140.591-45.216 140.591-100.356 0-55.694-62.94-101.678-140.591-101.678z" fill="#004087"/><path d="m3841.271-505.757h-1151.672c-9.61 0-17.409 7.737-17.409 17.349v32.986c-11.697-5.042-24.026-9.729-36.669-13.884-98.901-32.611-215.881-36.451-295.284-36.451h-658.982c-9.57 0-17.447 7.737-17.447 17.349v133.975l-45.531-135.038c-3.545-10.437-11.974-16.444-22.923-16.444l-1255.417.118c-11.107 0-21.86 4.353-29.699 12.23l-116.31 115.994v-110.835c0-9.611-7.68-17.349-17.368-17.349h-506.496c-9.572 0-17.389 7.737-17.389 17.349v143.979c-108.336-125.034-290.145-199.436-488.832-199.436-160.068 0-308.419 47.067-418.604 132.596v-77.14c0-9.611-7.779-17.349-17.429-17.349h-507.736c-9.552 0-17.35 7.737-17.35 17.349v52.424c-22.55-12.997-47.797-24.163-75.092-33.282-98.329-32.689-214.934-36.49-294.062-36.49h-659.946c-9.611 0-17.429 7.737-17.429 17.349v142.206l-48.682-143.112c-3.348-9.787-12.663-16.404-22.981-16.404h-684.761c-10.34 0-19.575 6.617-22.845 16.404l-99.846 297.824-39.781-297.095c-1.28-9.788-9.709-17.172-19.673-17.172h-421.479c-11.166 0-22.175 3.84-31.017 10.812l-149.789 117.806-150.793-117.925c-8.842-6.853-19.772-10.692-31.057-10.692h-421.4c-9.925 0-18.314 7.384-19.595 17.172l-105.556 791.734c-1.202 9.137 5.888 17.172 15.085 17.172h511.655c9.886 0 18.354-7.326 19.634-17.172l24.283-182.361 143.151 89.564c8.98 5.672 20.481 5.672 29.442 0l143.861-90.117 24.282 182.992c1.28 9.887 9.708 17.172 19.634 17.172h829.231c10.359 0 19.635-6.615 22.982-16.385l74.225-216.469 73.121 216.469c3.309 9.77 12.584 16.385 22.943 16.385h844.317c9.551 0 17.35-7.641 17.35-17.33v-141.554l148.824 146.754c7.896 7.721 18.669 12.131 29.796 12.131h852.549c9.63 0 17.409-7.641 17.409-17.33v-69.479c105.123 79.68 258.909 126.945 413.168 126.945 195.576 0 381.796-75.701 488.831-198.037v140.492c0 9.611 7.778 17.33 17.389 17.33h510.868c9.531 0 17.329-7.719 17.329-17.33v-102.879l109.811 108.078c7.878 7.799 18.67 12.131 29.697 12.131h817.987c10.398 0 19.614-6.617 22.883-16.463l72.275-214.582 74.008 214.66c3.427 9.768 12.722 16.385 23.041 16.385h845.322c9.531 0 17.369-7.719 17.369-17.33v-143.211l148.961 148.332c7.839 7.877 18.59 12.209 29.658 12.209h1133.239c9.532 0 17.37-7.719 17.37-17.33v-425.28h301.349c9.61 0 17.488-7.857 17.488-17.408v-348.713c-.077-9.611-7.876-17.348-17.486-17.348zm-7627.486 703.468h-311.393c-2.501 0-4.568-1.773-4.962-4.213l-35.33-266.296c-.295-2.048-2.54-3.053-4.194-2.008l-238.822 149.394c-2.285 1.377-5.121 1.377-7.405 0l-237.837-148.469c-1.694-1.004-3.998 0-4.234 2.048l-35.429 265.332c-.315 2.52-2.402 4.213-4.864 4.213h-313.263c-2.344 0-4.077-1.969-3.762-4.213l79.345-595.079c.276-2.461 2.422-4.273 4.924-4.273h313.165c2.796 0 5.533 1.005 7.66 2.738l194.532 156.484c2.048 1.614 4.884 1.614 6.854 0l194.532-156.484c2.166-1.694 4.903-2.738 7.7-2.738h312.24c2.462 0 4.568 1.852 4.923 4.273l79.345 595.079c.391 2.243-1.381 4.212-3.725 4.212zm1007.182 0h-311.373c-2.54 0-4.923-1.615-5.771-4.137l-159.182-476.619c-.453-1.261-2.383-1.261-2.698 0l-158.276 476.619c-.848 2.521-3.132 4.137-5.751 4.137h-312.377c-2.147 0-3.624-2.049-2.993-4.137l198.647-595.429c.807-2.384 3.052-4.117 5.672-4.117h552.874c2.58 0 4.884 1.694 5.73 4.117l198.471 595.429c.651 2.088-.846 4.137-2.973 4.137zm1044.52 0h-349.638c-2.777 0-5.455-1.064-7.464-2.955l-235.218-235.534c-1.202-1.239-.807-3.426.926-3.701 18.235-3.033 94.213-17.625 142.344-61.424 54.924-50.415 7.7-139.961-51.263-139.961-23.553 0-107.132 0-174.365 0-2.127 0-3.15 2.304-3.15 4.272v435.009c0 2.441-1.97 4.293-4.353 4.293h-311.531c-2.363 0-4.273-1.93-4.273-4.293v-594.999c0-2.383 1.95-4.352 4.273-4.352h237.326 80.507 243.962c161.014 0 397.04 17.9 397.04 193.074 0 109.534-132.95 192.464-157.823 207.057-2.029 1.162-2.541 3.663-.965 5.356l195.004 195.201c1.044 1.027.276 2.957-1.339 2.957zm368.563-4.293c0 2.363-1.95 4.215-4.372 4.215h-311.393c-2.422 0-4.352-1.93-4.352-4.215v-594.999c0-2.383 1.969-4.352 4.352-4.352h311.393c2.462 0 4.372 1.969 4.372 4.352zm529.832 44.467c-264.246 0-477.408-153.096-477.408-341.778 0-189.077 213.162-342.332 477.408-342.332 264.148 0 476.443 153.255 476.443 342.332-.039 188.682-212.295 341.778-476.443 341.778zm1558.5-40.174h-351.568c-2.758 0-5.476-1.064-7.444-2.955l-276.476-277.519c-1.143-1.162-3.072-.315-3.072 1.261v274.92c0 2.363-1.97 4.215-4.353 4.215h-311.156c-2.54 0-4.372-1.93-4.372-4.215v-594.999c0-2.383 1.871-4.352 4.372-4.352h311.156c2.423 0 4.353 1.969 4.353 4.352v274.979c0 1.615 1.93 2.462 3.072 1.3l276.476-277.617c1.969-1.891 4.687-3.053 7.444-3.053h350.582c1.576 0 2.402 1.97 1.221 3.053l-294.691 295.893c-1.655 1.694-1.655 4.431 0 6.125l295.638 295.54c1.258 1.142.471 3.072-1.182 3.072zm117.609-549.407-129.347 387.35-128.558-128.323zm889.709 549.407h-311.354c-2.599 0-4.884-1.615-5.75-4.137l-158.374-477.584c-.354-1.3-2.323-1.3-2.639 0l-160.383 477.584c-.866 2.521-3.112 4.137-5.751 4.137h-311.235c-2.165 0-3.702-2.049-2.913-4.137l198.509-594.465c.827-2.462 3.072-4.076 5.711-4.076h552.716c2.6 0 4.924 1.614 5.751 4.076l198.746 594.465c.629 2.088-.906 4.137-3.034 4.137zm1045.526 0h-350.623c-2.757 0-5.513-1.064-7.483-2.955l-235.259-235.534c-1.26-1.239-.748-3.426.906-3.701 18.197-3.033 94.293-17.625 142.266-61.424 54.945-50.415 6.735-139.961-52.227-139.961-23.555 0-107.054 0-173.539 0-2.127 0-3.111 2.304-3.111 4.272v435.009c0 2.441-1.97 4.293-4.294 4.293h-310.289c-2.363 0-4.333-1.93-4.333-4.293v-594.999c0-2.383 1.97-4.352 4.333-4.352h235.14 80.507 242.938c161.093 0 400.014 17.9 400.014 193.074 0 109.534-132.97 192.464-157.862 207.057-2.009 1.162-2.521 3.663-.945 5.356l195.122 195.201c1.102 1.027.274 2.957-1.261 2.957zm217.887 67.785-247.586-246.662c45.611-45.116 76.923-93.13 93.229-143.327h154.357zm754.338-514.787c0 2.383-1.971 4.312-4.333 4.312h-313.283c-2.56 0-4.372 1.949-4.372 4.313v434.006c0 2.441-1.969 4.293-4.293 4.293h-312.417c-2.442 0-4.253-1.93-4.253-4.293v-433.965c0-2.363-2.01-4.313-4.334-4.313h-312.258c-2.442 0-4.333-1.93-4.333-4.312v-152.289c0-2.384 1.969-4.353 4.333-4.353h955.367c2.442 0 4.333 1.969 4.333 4.353v152.25h-.157z" fill="#004087"/></svg>